<svg width="40" height="40" viewBox="0 0 40 40" fill="none" xmlns="http://www.w3.org/2000/svg">
  <circle cx="20" cy="20" r="20" fill="#3B99FC"/>
  <path d="M12.5 20C12.5 15.8579 15.8579 12.5 20 12.5C24.1421 12.5 27.5 15.8579 27.5 20C27.5 24.1421 24.1421 27.5 20 27.5C15.8579 27.5 12.5 24.1421 12.5 20Z" fill="white"/>
  <path d="M25.5 16.5C23.5 14.5 20.5 14 18 15.5L19 17.5C21 16.5 23 17 24.5 18.5C26 20 26.5 22 25.5 24L27.5 25C29 22.5 28.5 19 25.5 16.5Z" fill="#3B99FC"/>
  <path d="M22 18.5C20.5 17.5 18.5 17.5 17 18.5L18 20.5C19 19.5 20.5 19.5 21.5 20.5C22.5 21.5 22.5 23 21.5 24L23 25.5C25 23.5 25 20.5 22 18.5Z" fill="#3B99FC"/>
  <path d="M15.5 21.5L13.5 20.5C13 22 13.5 24 15.5 25.5C17.5 27.5 20.5 28 23 26.5L22 24.5C20 25.5 18 25 16.5 23.5C15 22 15 21 15.5 21.5Z" fill="#3B99FC"/>
</svg>