<svg width="120" height="120" viewBox="0 0 120 120" fill="none" xmlns="http://www.w3.org/2000/svg">
  <rect width="120" height="120" rx="60" fill="#1A1A1A"/>
  <path d="M60 96C79.8823 96 96 79.8823 96 60C96 40.1177 79.8823 24 60 24C40.1177 24 24 40.1177 24 60C24 79.8823 40.1177 96 60 96Z" fill="white"/>
  <path d="M60 88C75.464 88 88 75.464 88 60C88 44.536 75.464 32 60 32C44.536 32 32 44.536 32 60C32 75.464 44.536 88 60 88Z" fill="#1A1A1A"/>
  <path d="M48.5 48H56.5V72H48.5V48Z" fill="white"/>
  <path d="M63.5 48H71.5V72H63.5V48Z" fill="white"/>
  <path d="M60 76C62.2091 76 64 74.2091 64 72C64 69.7909 62.2091 68 60 68C57.7909 68 56 69.7909 56 72C56 74.2091 57.7909 76 60 76Z" fill="white"/>
</svg>