<svg width="40" height="40" viewBox="0 0 40 40" fill="none" xmlns="http://www.w3.org/2000/svg">
  <circle cx="20" cy="20" r="20" fill="#1A1A1A"/>
  <path d="M20 12.5C15.8579 12.5 12.5 15.8579 12.5 20C12.5 24.1421 15.8579 27.5 20 27.5C24.1421 27.5 27.5 24.1421 27.5 20C27.5 15.8579 24.1421 12.5 20 12.5Z" fill="white"/>
  <path d="M20 16C17.7909 16 16 17.7909 16 20C16 22.2091 17.7909 24 20 24C22.2091 24 24 22.2091 24 20C24 17.7909 22.2091 16 20 16Z" fill="#1A1A1A"/>
  <path d="M20 18C18.8954 18 18 18.8954 18 20C18 21.1046 18.8954 22 20 22C21.1046 22 22 21.1046 22 20C22 18.8954 21.1046 18 20 18Z" fill="#FFD166"/>
</svg>