<svg width="40" height="40" viewBox="0 0 40 40" fill="none" xmlns="http://www.w3.org/2000/svg">
  <circle cx="20" cy="20" r="20" fill="#1A1A1A"/>
  <path d="M20 12.5C15.8579 12.5 12.5 15.8579 12.5 20C12.5 24.1421 15.8579 27.5 20 27.5C24.1421 27.5 27.5 24.1421 27.5 20C27.5 15.8579 24.1421 12.5 20 12.5Z" fill="white"/>
  <path d="M20 16.5C17.9289 16.5 16.5 17.9289 16.5 20C16.5 22.0711 17.9289 23.5 20 23.5C22.0711 23.5 23.5 22.0711 23.5 20C23.5 17.9289 22.0711 16.5 20 16.5Z" fill="#1A1A1A"/>
  <path d="M20 18.5C21.1046 18.5 22 19.3954 22 20.5C22 21.6046 21.1046 22.5 20 22.5C18.8954 22.5 18 21.6046 18 20.5C18 19.3954 18.8954 18.5 20 18.5Z" fill="white"/>
</svg>