<svg width="120" height="120" viewBox="0 0 120 120" xmlns="http://www.w3.org/2000/svg">
  <circle cx="60" cy="60" r="60" fill="#f7931a"/>
  <path d="M74.5,58.3c3.2-1.5,5.1-4.3,4.8-8.6c-0.5-7.1-6.7-9.5-14.3-10.2v-7.3h-6.2v7.1h-5.2v-7.1h-6.2v7.3h-4.9v7.1h4.9v16.2h-4.9v7.1h4.9v7.2h6.2v-7.2h5.2v7.2h6.2v-7.4c7.8-0.4,13.2-3.1,13.8-9.4C80.5,61.6,78.3,59.5,74.5,58.3z M58.8,45.2c4.2,0.3,9.1,0.7,9.4,5.2c0.2,3.6-3.1,4.9-6.8,5.2h-2.6v-10.4H58.8z M57.7,66.5v-11.2h2.8c4.6,0.4,9.5,1.1,9.8,5.7c0.2,4.2-4,5.4-8.1,5.5H57.7z" fill="#ffffff"/>
</svg>
